<svg width="36" height="36" viewBox="0 0 36 36" fill="none" xmlns="http://www.w3.org/2000/svg">
<path d="M3.90375 28.1475C3.49875 28.5525 3.25125 29.0362 3.15 29.5537V29.5987L2.46375 32.7712L2.25 33.75L3.22875 33.5362L6.40125 32.8612H6.44625C6.96375 32.7487 7.45875 32.49 7.8525 32.0962C8.94375 31.005 8.94375 29.2387 7.8525 28.1475C6.76125 27.0562 4.995 27.0562 3.90375 28.1475Z" fill="#151515"/>
<path d="M23.9512 16.0312C25.0537 14.9287 25.0537 13.1512 23.9512 12.0487C22.8487 10.9462 21.0712 10.9462 19.9687 12.0487C18.8662 13.1512 18.8662 14.9287 19.9687 16.0312C21.0712 17.1337 22.8487 17.1337 23.9512 16.0312Z" fill="#151515"/>
<path d="M24.7837 24.075C24.7837 24.075 24.8962 24.0075 24.9525 23.9738C26.325 23.0963 27.6412 22.0838 28.8112 20.9138C34.9987 14.7263 33.615 2.38501 33.615 2.38501C33.615 2.38501 21.2737 1.01251 15.0975 7.18876C13.9275 8.35876 12.915 9.67501 12.0375 11.0475C12.015 11.0925 11.9925 11.115 11.97 11.16L3.58875 14.3325L8.35874 19.1025L8.26874 19.305C8.20124 19.5413 8.1225 19.755 8.06625 19.9688C7.43625 22.0725 7.18874 23.5013 7.18874 23.5013L12.4987 28.8113C12.4987 28.8113 13.9275 28.5638 16.0312 27.9338C16.2562 27.8663 16.47 27.7988 16.695 27.7313L16.8975 27.6413L21.6675 32.4113L24.7837 24.0638V24.075ZM24.0637 19.8C23.67 20.0925 23.265 20.3738 22.8375 20.6438C22.2637 21.015 21.69 21.3413 21.1162 21.6338C20.9362 21.7238 20.7787 21.8138 20.5987 21.8925C19.6875 22.365 18.7987 22.77 17.9437 23.1075C16.8187 23.5575 15.7837 23.9063 14.9175 24.1538C14.49 24.2775 14.1075 24.39 13.7587 24.4913L11.52 22.2525C11.61 21.9038 11.7225 21.51 11.8462 21.0825C12.105 20.2275 12.4537 19.1925 12.9037 18.0675C13.2412 17.2125 13.635 16.3125 14.1075 15.4125C14.1862 15.2325 14.2762 15.075 14.3662 14.895C14.6587 14.31 14.9962 13.7363 15.3562 13.1738C15.6375 12.735 15.9075 12.33 16.2112 11.9363C16.7512 11.205 17.3137 10.5525 17.8987 9.96751C20.7675 7.09876 26.0437 6.28876 29.8125 6.19876C29.7225 9.96751 28.9125 15.2438 26.0437 18.1238C25.4587 18.7088 24.795 19.2825 24.075 19.8113L24.0637 19.8Z" fill="#151515"/>
</svg>
