<svg width="36" height="36" viewBox="0 0 36 36" fill="none" xmlns="http://www.w3.org/2000/svg">
<path d="M22.7812 29.8125H13.2188V33.75H22.7812V29.8125Z" fill="#151515"/>
<path d="M18 8.49377C14.1413 8.49377 10.035 11.205 10.035 16.2338C10.035 18.6525 11.1488 20.5875 12.0488 22.1513C12.645 23.1863 13.1513 24.0863 13.2188 24.8513V27.0113H22.7813V24.8513C22.86 24.0863 23.355 23.1863 23.9513 22.1625C24.8513 20.61 25.965 18.6638 25.965 16.245C25.965 11.2163 21.8588 8.50502 18 8.50502V8.49377ZM20.5425 20.1825C20.0138 21.105 19.4738 22.0388 19.1363 23.0625H16.8525C16.5263 22.0388 15.975 21.0938 15.4463 20.1825C14.6813 18.855 13.9613 17.595 13.9613 16.2338C13.9613 13.6238 16.0538 12.4313 17.9888 12.4313C19.9238 12.4313 22.0163 13.6238 22.0163 16.2338C22.0163 17.595 21.2963 18.855 20.5313 20.1825H20.5425Z" fill="#151515"/>
<path d="M19.9688 2.25H16.0312V6.75H19.9688V2.25Z" fill="#151515"/>
<path d="M7.875 13.7812H3.375V17.7188H7.875V13.7812Z" fill="#151515"/>
<path d="M32.625 13.7812H28.125V17.7188H32.625V13.7812Z" fill="#151515"/>
<path d="M27.5963 4.48367L24.4143 7.66565L27.1985 10.4499L30.3805 7.2679L27.5963 4.48367Z" fill="#151515"/>
<path d="M8.4125 4.48219L5.62827 7.26642L8.81025 10.4484L11.5945 7.66417L8.4125 4.48219Z" fill="#151515"/>
</svg>
