<svg width="32" height="32" viewBox="0 0 32 32" fill="none" xmlns="http://www.w3.org/2000/svg">
<path d="M7.5 10H2V22H7.5L17.5 30V2L7.5 10ZM14 22.72L8.73 18.5H5V13.5H8.73L14 9.28V22.72Z" fill="#151515"/>
<path d="M19.5 13.22C20.12 13.99 20.5 14.94 20.5 16C20.5 17.06 20.12 18.01 19.5 18.78L22.25 20.99C23.35 19.62 24.01 17.89 24.01 16C24.01 14.11 23.35 12.38 22.25 11.01L19.5 13.21V13.22Z" fill="#151515"/>
<path d="M26.9097 7.27L24.1797 9.45C25.6197 11.25 26.4997 13.51 26.4997 15.99C26.4997 18.47 25.6197 20.74 24.1797 22.53L26.9097 24.71C28.8297 22.32 29.9997 19.29 29.9997 15.98C29.9997 12.67 28.8297 9.65 26.9097 7.25V7.27Z" fill="#151515"/>
</svg>
