<svg width="36" height="36" viewBox="0 0 36 36" fill="none" xmlns="http://www.w3.org/2000/svg">
<path d="M23.8837 16.6163L25.3463 15.3562L26.7188 14.175V2.25H19.98H22.7812V12.375L19.98 14.7825V2.25H16.0425V14.7937L13.2413 12.375V2.25H16.0425H9.30375V14.1862L10.6762 15.3675L12.1387 16.6275C9.88875 18.3825 8.4375 21.105 8.4375 24.1762C8.4375 29.4637 12.7238 33.7613 18.0225 33.7613C23.3213 33.7613 27.6075 29.475 27.6075 24.1762C27.6075 21.105 26.1562 18.3825 23.9062 16.6275L23.8837 16.6163ZM18 29.8125C14.8838 29.8125 12.3525 27.2812 12.3525 24.165C12.3525 21.0487 14.8838 18.5175 18 18.5175C21.1162 18.5175 23.6475 21.0487 23.6475 24.165C23.6475 27.2812 21.1162 29.8125 18 29.8125Z" fill="#151515"/>
</svg>
