<svg width="36" height="36" viewBox="0 0 36 36" fill="none" xmlns="http://www.w3.org/2000/svg">
<path d="M33.57 2.43C32.6925 2.3175 31.8037 2.25 30.9375 2.25C26.415 2.25 22.095 3.825 18.855 7.065C16.7737 9.14625 15.4012 11.6887 14.67 14.4225C14.5462 14.2875 14.445 14.1412 14.31 14.0062C11.8575 11.5537 8.54999 10.3725 5.05124 10.3725C4.19624 10.3725 3.34124 10.44 2.47499 10.5862C1.76624 15.0075 2.85749 19.3725 5.90624 22.41C8.09999 24.6038 10.98 25.7738 14.0737 25.9988V33.75H18.0112V21.8925C22.1062 21.645 25.9762 20.0925 28.9462 17.1337C32.8162 13.275 34.3125 7.86375 33.5925 2.43H33.57ZM8.67374 19.62C7.32374 18.27 6.49124 16.4363 6.25499 14.3663C7.90874 14.5463 9.87749 15.1538 11.5087 16.785C12.8587 18.135 13.6912 19.9687 13.9275 22.0275C12.2737 21.8475 10.305 21.24 8.67374 19.6088V19.62ZM18.0112 17.9663C18.2587 14.8163 19.5187 11.9588 21.6225 9.855C23.7262 7.75125 26.5837 6.49125 29.7562 6.2325C29.5087 9.3825 28.2487 12.24 26.145 14.3438C24.0412 16.4475 21.1837 17.7075 18.0112 17.9663Z" fill="#151515"/>
</svg>
