<svg width="32" height="32" viewBox="0 0 32 32" fill="none" xmlns="http://www.w3.org/2000/svg">
<path d="M29.82 2C24.91 2 20.11 3.41 16 6.05C11.89 3.41 7.09 2 2.18 2H2V25.41H2.29C6.52 25.57 10.63 26.77 14.25 28.88C14.85 29.22 15.43 29.6 16 30C16.57 29.6 17.15 29.22 17.75 28.88C21.37 26.77 25.48 25.57 29.71 25.42H30V2H29.82ZM14.25 24.91C11.5 23.55 8.54 22.64 5.5 22.2V5.75C8.56 6.21 11.49 7.31 14.13 9.01C14.17 9.04 14.21 9.06 14.25 9.09V24.91ZM26.5 22.2C23.46 22.64 20.49 23.56 17.75 24.91V9.09C17.75 9.09 17.84 9.03 17.89 9C20.51 7.32 23.44 6.22 26.5 5.75V22.2Z" fill="#151515"/>
</svg>
